# xmcd CD database file
#
# Track frame offsets:
#	150
#	31482
#	50880
#	85037
#	102975
#	114985
#	142595
#	166830
#	191632
#
# Disc length: 3176 seconds
#
# Revision: 0
# Processed by: cddbd v1.5.1PL0 Copyright (c) Steve Scherf et al.
# Submitted via: CDex 1.51
#
DISCID=6d0c6609
DTITLE=Paco Viciana - Mirades
DYEAR=2001
DGENRE=New Age
TTITLE0=Musica
TTITLE1=Nana
TTITLE2=Dantza
TTITLE3=Gilda
TTITLE4=Mirades
TTITLE5=Vulcano
TTITLE6=I per què no?
TTITLE7=Pozos
TTITLE8=Africa
EXTD=YEAR: 2001
EXTT0=
EXTT1=
EXTT2=
EXTT3=
EXTT4=
EXTT5=
EXTT6=
EXTT7=
EXTT8=
PLAYORDER=
